<svg version="1.1" id="Layer_1" xmlns="http://www.w3.org/2000/svg" xmlns:xlink="http://www.w3.org/1999/xlink" x="0px" y="0px"
	 width="70px" viewBox="0 0 1024 1024" enable-background="new 0 0 1024 1024" xml:space="preserve">
<path fill="#FFC700" opacity="1.000000" stroke="none" 
	d="
M583.861755,570.735962 
	C582.169373,570.654907 580.477051,570.573853 578.204834,570.358826 
	C577.052185,570.279358 576.479492,570.333862 575.906738,570.388367 
	C560.609741,570.361511 545.312683,570.334717 529.319580,570.253784 
	C528.065552,570.262085 527.507568,570.324402 526.949646,570.386719 
	C521.396118,570.386719 515.842529,570.386719 509.477539,570.386719 
	C528.747559,548.828918 547.304993,528.014038 565.921875,507.252411 
	C603.918701,464.878052 641.947876,422.532684 679.960754,380.172699 
	C680.626099,379.431244 681.253967,378.656128 682.369873,377.480011 
	C685.168091,374.203552 687.495728,371.343781 690.539917,367.603668 
	C679.075623,367.603668 668.975891,367.603668 658.876160,367.603668 
	C658.485168,367.551208 658.094177,367.498749 657.014526,367.324402 
	C654.847290,367.295013 653.368652,367.387543 651.890076,367.480072 
	C651.492615,367.461792 651.095215,367.443512 650.056641,367.333679 
	C648.904846,367.346069 648.394165,367.449921 647.883484,367.553772 
	C647.490051,367.500580 647.096558,367.447388 645.960510,367.274231 
	C639.771545,367.295441 634.325256,367.436615 628.878906,367.577820 
	C623.256714,367.473328 617.634583,367.368805 611.126282,367.216278 
	C608.123718,367.267883 606.007324,367.367493 603.890869,367.467133 
	C603.492188,367.395111 603.093506,367.323090 601.990112,367.205872 
	C600.153381,367.264282 599.021301,367.367828 597.889282,367.471375 
	C597.190735,367.406464 596.492249,367.341553 594.994324,367.210510 
	C588.097107,367.232513 581.999329,367.320679 575.901489,367.408875 
	C570.919373,367.287201 565.937195,367.165497 560.398315,366.628357 
	C559.712646,365.436066 559.583801,364.659271 559.454834,363.882446 
	C559.583984,340.356018 559.711670,316.829559 559.844604,293.303131 
	C559.856750,291.148193 559.902161,288.993469 560.373474,286.156128 
	C595.837769,285.414429 630.860657,285.343658 665.883545,285.298767 
	C717.930847,285.232056 769.978210,285.183655 822.025513,285.127502 
	C832.700256,286.758911 839.055603,293.125946 842.037231,304.103943 
	C844.612122,315.332092 838.318970,322.224091 832.227417,329.069244 
	C808.493469,355.739594 784.674255,382.334167 760.576294,409.076355 
	C737.678223,434.184174 715.090637,459.172546 691.926636,484.798523 
	C694.075806,484.798523 695.046204,484.798523 696.016602,484.798523 
	C702.042969,484.892426 708.069397,484.986328 714.894775,485.182404 
	C729.462280,485.188721 743.230713,485.092865 756.999146,484.997009 
	C757.449829,485.042175 757.900513,485.087341 758.986694,485.243225 
	C767.069092,485.195221 774.516052,485.036499 781.962952,484.877777 
	C783.266235,485.016663 784.569519,485.155548 786.964050,485.410736 
	C782.801697,489.877655 779.077026,493.874817 775.218567,498.214905 
	C775.084717,498.557861 775.054321,498.520325 774.787659,498.651733 
	C774.267456,499.493591 774.013977,500.204041 773.556885,500.894287 
	C773.353394,500.874054 772.992615,501.066864 772.705566,501.022522 
	C772.220154,501.300171 772.021790,501.622101 771.511963,502.068848 
	C766.509888,507.789368 761.972168,513.522949 757.085144,518.941589 
	C752.289062,524.259216 746.976562,529.110962 742.175720,534.424683 
	C731.961182,545.730530 721.931458,557.203491 711.522339,568.763184 
	C709.296387,571.209412 707.374146,573.500549 705.182983,575.962402 
	C701.228394,580.171387 697.413757,584.100708 693.889282,588.275024 
	C689.362488,593.636536 685.244507,599.348694 680.623535,604.623535 
	C676.288513,609.571838 671.527710,614.147095 666.833374,619.123413 
	C666.292236,619.917419 665.871948,620.474426 665.175903,621.252686 
	C663.494873,623.372437 662.089661,625.271057 660.538696,627.414429 
	C660.233887,627.763062 660.074951,627.866943 659.566406,627.963501 
	C653.622070,633.895935 648.027344,639.835632 642.153198,645.923279 
	C640.327942,647.921265 638.782166,649.771362 636.971558,651.790649 
	C628.071777,661.495605 619.436829,671.031372 610.506836,680.712585 
	C609.414307,681.880798 608.616821,682.903503 607.518921,684.065613 
	C605.911011,685.715515 604.603455,687.225891 603.011963,688.866333 
	C599.214417,693.003357 595.700806,697.010376 591.799011,701.460144 
	C595.205444,701.460144 597.621887,701.460144 600.476074,701.631226 
	C607.948242,701.728088 614.982727,701.653992 622.017212,701.579834 
	C624.377258,701.635010 626.737305,701.690247 629.853760,701.813782 
	C631.084229,701.797668 631.558411,701.713196 632.032532,701.628784 
	C633.090942,701.684814 634.149353,701.740784 635.982788,701.780029 
	C637.851257,701.685486 638.944763,701.607727 640.038208,701.529968 
	C640.467407,701.609497 640.896667,701.689087 642.011414,701.834839 
	C643.477783,701.789490 644.258667,701.677917 645.039490,701.566406 
	C651.528381,701.659485 658.017212,701.752563 665.258362,701.888916 
	C666.924866,701.816833 667.839050,701.701599 668.753296,701.586365 
	C670.569458,701.654968 672.385620,701.723572 674.917847,701.839600 
	C677.307312,701.826660 678.980713,701.766235 680.654053,701.705811 
	C689.120422,701.739990 697.586853,701.774109 706.916382,701.821045 
	C709.200195,701.739685 710.620911,701.645386 712.041565,701.551147 
	C726.842468,701.645569 741.643311,701.739990 757.175537,701.840088 
	C758.872070,701.723145 759.837280,701.600525 760.802429,701.477905 
	C777.740417,701.596069 794.678406,701.714233 811.616394,701.832642 
	C814.439636,701.852356 817.263794,701.834717 820.085938,701.900146 
	C833.390076,702.208374 842.302429,710.392578 842.636475,723.537354 
	C842.949402,735.848450 842.777649,748.198364 842.171326,760.499329 
	C841.495239,774.216614 831.005859,783.996521 817.241272,784.019714 
	C756.496460,784.122009 695.751404,784.100647 635.006470,784.095093 
	C582.583679,784.090271 530.160828,784.010681 477.738159,784.087280 
	C473.562988,784.093323 472.146851,783.807129 472.818787,778.652649 
	C478.780670,732.919250 499.055023,693.619446 527.512268,658.364319 
	C548.413330,632.470459 570.764099,607.746826 592.473267,582.505432 
	C595.246582,579.280945 598.046448,576.079285 601.317993,572.449585 
	C601.577698,571.617432 601.353271,571.202759 601.128845,570.788025 
	C600.589722,570.700745 600.050598,570.613525 598.812134,570.455322 
	C593.362427,570.501526 588.612122,570.618774 583.861755,570.735962 
z"/>
<path fill="#4370AF" opacity="1.000000" stroke="none" 
	d="
M325.021362,701.501221 
	C341.230438,701.604980 357.439392,701.743774 373.648621,701.800171 
	C384.430939,701.837708 395.213684,701.757690 406.812561,701.814331 
	C408.116852,701.778564 408.604797,701.658691 409.092743,701.538879 
	C409.498230,701.604126 409.903748,701.669373 410.964020,701.807190 
	C412.109558,701.768372 412.600311,701.656921 413.091064,701.545532 
	C426.650513,701.545532 440.209991,701.545532 454.568817,701.545532 
	C449.431580,717.519348 442.179321,731.342773 432.762665,744.779419 
	C420.969604,760.898926 408.595428,775.450195 390.006165,783.026672 
	C389.554749,783.040222 389.103363,783.053772 387.938293,783.174438 
	C384.805054,783.649780 382.385437,784.018005 379.965820,784.386230 
	C379.533264,784.337891 379.100677,784.289551 377.905670,784.200500 
	C373.081177,784.268066 369.019135,784.376465 364.957092,784.484802 
	C363.904633,784.390930 362.852142,784.297058 361.067535,784.195862 
	C352.879364,784.246094 345.423340,784.303589 337.967316,784.361084 
	C334.949615,784.298340 331.931946,784.235657 328.141479,784.155273 
	C326.902710,784.199341 326.436707,784.260986 325.970734,784.322632 
	C324.269714,784.273499 322.568726,784.224304 320.111725,784.113342 
	C318.892395,784.174500 318.429016,784.297546 317.965637,784.420532 
	C317.534790,784.316345 317.103943,784.212219 315.908539,784.085571 
	C312.418793,784.155029 309.693542,784.246948 306.968323,784.338806 
	C306.230011,784.287781 305.491730,784.236755 303.946991,784.154602 
	C287.748108,784.215027 272.355652,784.306702 256.963196,784.398315 
	C256.528290,784.315918 256.093384,784.233521 255.009888,784.172852 
	C253.896652,784.249817 253.431992,784.305115 252.967346,784.360474 
	C251.152542,784.306519 249.337723,784.252563 246.764252,784.175720 
	C240.393707,784.202515 234.781845,784.252258 229.169983,784.302002 
	C229.169983,784.302002 228.803879,784.090454 228.318756,783.952637 
	C226.241852,783.497070 224.650055,783.179321 223.058273,782.861572 
	C222.567032,782.590759 222.075790,782.320068 221.050476,781.852295 
	C219.700241,781.389221 218.884048,781.123291 218.067871,780.857361 
	C217.017609,780.030945 215.967346,779.204529 214.478775,777.983154 
	C212.757172,776.259460 211.473892,774.930664 210.190613,773.601868 
	C206.078491,767.016418 205.000168,759.807434 205.014648,752.125732 
	C205.175659,666.748535 205.235931,581.371094 205.248383,495.993683 
	C205.257278,435.068542 205.118347,374.143433 205.119293,313.218292 
	C205.119568,295.598572 215.653412,285.049927 232.963257,285.053833 
	C304.434357,285.069977 375.905457,285.100800 447.376556,285.120850 
	C462.817444,285.125183 478.258575,285.045197 493.699127,285.115692 
	C511.378784,285.196411 521.168335,295.156525 521.126953,312.800140 
	C521.088318,329.294159 520.971008,345.789612 521.163330,362.281219 
	C521.208618,366.167206 520.234497,367.397003 516.194397,367.387512 
	C474.756714,367.290283 433.318634,367.433136 391.880646,367.429901 
	C357.936707,367.427216 323.992737,367.316620 290.048798,367.261719 
	C289.394592,367.260651 288.740234,367.356995 287.563171,367.448578 
	C287.563171,406.390778 287.563171,445.282501 287.563171,484.871216 
	C369.070038,484.871216 450.812317,484.871216 533.969666,484.871216 
	C532.181641,487.016174 531.214905,488.175873 529.817139,489.787292 
	C525.788940,494.220093 522.191772,498.201172 518.295959,502.364014 
	C517.449890,503.287842 516.902588,504.029907 516.075623,504.918060 
	C509.802521,511.869171 503.808990,518.674194 497.539703,525.625244 
	C496.938263,526.516724 496.612610,527.262146 495.991394,528.199585 
	C495.117798,528.682556 494.386475,528.836121 493.983978,529.284729 
	C481.920471,542.728333 469.889435,556.201111 457.853271,569.669312 
	C456.852173,569.874451 455.851074,570.079651 454.035583,570.147095 
	C450.803741,570.093628 448.386261,570.177917 445.968781,570.262146 
	C445.526245,570.195251 445.083679,570.128296 443.876831,570.081421 
	C439.424194,570.145447 435.735931,570.189270 431.781342,570.113525 
	C431.330200,570.054810 431.145325,570.115601 430.499634,570.106201 
	C424.370422,570.075500 418.702118,570.115051 412.698975,570.010010 
	C411.897827,569.962830 411.431519,570.060242 410.601532,570.089355 
	C409.503479,570.065796 408.769135,570.110596 407.657928,570.038147 
	C406.508484,570.002441 405.735870,570.083923 404.574646,570.093018 
	C403.138824,570.082275 402.091553,570.143982 400.649353,570.074341 
	C399.157623,570.015564 398.060852,570.088074 396.574585,570.098145 
	C395.140961,570.107483 394.096893,570.179199 392.670013,570.131042 
	C391.504242,570.106262 390.721313,570.201355 389.480652,570.209473 
	C382.687744,570.175049 376.352478,570.227539 369.572510,570.172729 
	C366.397980,570.144348 363.668152,570.223267 360.476959,570.248779 
	C354.702454,570.268433 349.389282,570.341492 343.791626,570.289551 
	C343.312500,570.235535 343.117859,570.306580 342.548798,570.264404 
	C341.136505,570.201538 340.098602,570.251831 338.682678,570.177124 
	C337.518585,570.118164 336.732544,570.184204 335.486115,570.178223 
	C321.708374,570.203979 308.391022,570.301697 294.712097,570.242554 
	C293.866821,570.247192 293.383087,570.408569 292.525696,570.495483 
	C290.336609,570.812927 287.259491,568.813782 287.269745,573.275940 
	C287.221710,574.110779 287.310394,574.594543 287.315063,575.535278 
	C287.249603,602.663574 287.268219,629.334900 287.186279,656.413818 
	C287.154572,658.212036 287.223419,659.602661 287.192108,661.403381 
	C287.159973,663.211365 287.227997,664.609253 287.198486,666.333130 
	C287.165924,667.103455 287.230896,667.547729 287.188538,668.442505 
	C287.143677,672.597778 287.206146,676.302490 287.181763,680.255127 
	C287.159058,680.666138 287.223206,680.829102 287.198425,681.388000 
	C287.173340,682.858215 287.237274,683.932556 287.205078,685.426758 
	C287.190796,687.561707 287.272583,689.276733 287.242493,691.399841 
	C287.208527,693.207642 287.286469,694.607422 287.254211,696.395508 
	C287.214813,697.853210 287.285614,698.922546 287.301849,700.388855 
	C287.944275,701.130859 288.642456,701.778687 289.338196,701.776123 
	C301.232758,701.732239 313.127014,701.607849 325.021362,701.501221 
z"/>
</svg>